<?xml version="1.0"?>
<svg version="1.1" id="圖層_1" xmlns="http://www.w3.org/2000/svg" x="0" y="0" viewBox="0 0 100 100" xml:space="preserve"><path d="M88.4 48L74 47c-11.2-.8-20.1-9.8-20.8-21l-1-16.7c-.1-1-.9-1.8-1.9-1.8h-.4c-1 0-1.9.8-1.9 1.8L47 26c-.9 11.2-9.8 20.2-21 21l-14.5 1c-.9.1-1.7.7-1.9 1.6-.2 1.2.7 2.2 1.8 2.3L26 53c11.2.8 20.1 9.8 20.8 21l1 16.7c.1 1 .9 1.8 1.9 1.8h.4c1 0 1.9-.8 1.9-1.8L53 74c.7-11.2 9.6-20.2 20.8-21l14.6-1c1.1-.1 2-1.1 1.8-2.3 0-.9-.8-1.6-1.8-1.7z" fill="#f5e169"/><metadata xmlns:d="https://loading.io/stock/"><d:name>star</d:name><d:tags>supernova,bright,twinkle,star,astrology</d:tags><d:license>pro</d:license><d:slug>4b3nam</d:slug></metadata></svg>